<mxfile host="app.diagrams.net" modified="2024-05-30T20:01:52.067Z" agent="Mozilla/5.0 (Windows NT 10.0; Win64; x64; rv:126.0) Gecko/20100101 Firefox/126.0" etag="njC81oPlSD1-Bhrg7i1K" version="24.4.10" type="device">
  <diagram name="PÃ¡gina-1" id="-t-8v69SYljJ3hl_-1ib">
    <mxGraphModel dx="1221" dy="761" grid="0" gridSize="10" guides="1" tooltips="1" connect="1" arrows="1" fold="1" page="1" pageScale="1" pageWidth="827" pageHeight="1169" background="#000000" math="0" shadow="0">
      <root>
        <mxCell id="0" />
        <mxCell id="1" parent="0" />
        <mxCell id="DE5yet_kDrVKlgOhP13U-1" value="" style="rounded=0;whiteSpace=wrap;html=1;fillColor=none;strokeColor=#006DFF;strokeWidth=3;" parent="1" vertex="1">
          <mxGeometry x="200" y="160" width="180" height="630" as="geometry" />
        </mxCell>
        <mxCell id="DE5yet_kDrVKlgOhP13U-2" value="&lt;font color=&quot;#ffffff&quot;&gt;&lt;b&gt;&lt;font style=&quot;font-size: 16px;&quot;&gt;ESP-32 - NODE&lt;/font&gt;&lt;/b&gt;&lt;/font&gt;" style="text;html=1;align=center;verticalAlign=middle;whiteSpace=wrap;rounded=0;" parent="1" vertex="1">
          <mxGeometry x="220" y="170" width="140" height="30" as="geometry" />
        </mxCell>
        <mxCell id="DE5yet_kDrVKlgOhP13U-14" style="edgeStyle=orthogonalEdgeStyle;rounded=0;orthogonalLoop=1;jettySize=auto;html=1;entryX=0;entryY=0.5;entryDx=0;entryDy=0;strokeColor=#FFFFFF;" parent="1" source="DE5yet_kDrVKlgOhP13U-4" target="DE5yet_kDrVKlgOhP13U-7" edge="1">
          <mxGeometry relative="1" as="geometry">
            <Array as="points">
              <mxPoint x="210" y="260" />
              <mxPoint x="210" y="420" />
            </Array>
          </mxGeometry>
        </mxCell>
        <mxCell id="DE5yet_kDrVKlgOhP13U-4" value="&lt;div&gt;&lt;font color=&quot;#ffffff&quot;&gt;NFC Sensor&lt;/font&gt;&lt;/div&gt;&lt;div&gt;&lt;font color=&quot;#ffffff&quot;&gt;&lt;b&gt;RC522&lt;/b&gt;&lt;br&gt;&lt;/font&gt;&lt;/div&gt;" style="rounded=0;whiteSpace=wrap;html=1;fillColor=#004C99;" parent="1" vertex="1">
          <mxGeometry x="230" y="230" width="120" height="60" as="geometry" />
        </mxCell>
        <mxCell id="DE5yet_kDrVKlgOhP13U-15" style="edgeStyle=orthogonalEdgeStyle;rounded=0;orthogonalLoop=1;jettySize=auto;html=1;entryX=1;entryY=0.5;entryDx=0;entryDy=0;strokeColor=#FFFFFF;" parent="1" source="DE5yet_kDrVKlgOhP13U-5" target="DE5yet_kDrVKlgOhP13U-7" edge="1">
          <mxGeometry relative="1" as="geometry">
            <Array as="points">
              <mxPoint x="370" y="340" />
              <mxPoint x="370" y="420" />
            </Array>
          </mxGeometry>
        </mxCell>
        <mxCell id="DE5yet_kDrVKlgOhP13U-5" value="&lt;div&gt;&lt;font color=&quot;#ffffff&quot;&gt;Fingerprint Reader&lt;/font&gt;&lt;/div&gt;&lt;div&gt;&lt;font color=&quot;#ffffff&quot;&gt;&lt;b&gt;DollaTek &lt;br&gt;&lt;/b&gt;&lt;/font&gt;&lt;/div&gt;" style="rounded=0;whiteSpace=wrap;html=1;fillColor=#004C99;" parent="1" vertex="1">
          <mxGeometry x="230" y="310" width="120" height="60" as="geometry" />
        </mxCell>
        <mxCell id="DE5yet_kDrVKlgOhP13U-37" style="edgeStyle=orthogonalEdgeStyle;rounded=0;orthogonalLoop=1;jettySize=auto;html=1;strokeColor=#FFFFFF;" parent="1" source="DE5yet_kDrVKlgOhP13U-7" target="DE5yet_kDrVKlgOhP13U-36" edge="1">
          <mxGeometry relative="1" as="geometry" />
        </mxCell>
        <mxCell id="DE5yet_kDrVKlgOhP13U-45" style="edgeStyle=orthogonalEdgeStyle;rounded=0;orthogonalLoop=1;jettySize=auto;html=1;entryX=0.5;entryY=0;entryDx=0;entryDy=0;strokeColor=#FFFFFF;" parent="1" source="DE5yet_kDrVKlgOhP13U-7" target="DE5yet_kDrVKlgOhP13U-10" edge="1">
          <mxGeometry relative="1" as="geometry">
            <Array as="points">
              <mxPoint x="210" y="420" />
              <mxPoint x="210" y="540" />
              <mxPoint x="290" y="540" />
            </Array>
          </mxGeometry>
        </mxCell>
        <mxCell id="DE5yet_kDrVKlgOhP13U-7" value="&lt;div&gt;&lt;font color=&quot;#ffffff&quot;&gt;Computation of RFID and Biometric Information&lt;br&gt;&lt;/font&gt;&lt;/div&gt;" style="rounded=0;whiteSpace=wrap;html=1;fillColor=#004C99;" parent="1" vertex="1">
          <mxGeometry x="230" y="390" width="120" height="60" as="geometry" />
        </mxCell>
        <mxCell id="DE5yet_kDrVKlgOhP13U-9" value="&lt;div&gt;&lt;font color=&quot;#ffffff&quot;&gt;(Device)&lt;/font&gt;&lt;/div&gt;&lt;div&gt;&lt;font color=&quot;#ffffff&quot;&gt;Heartbeat Service&lt;/font&gt;&lt;/div&gt;" style="rounded=0;whiteSpace=wrap;html=1;fillColor=#004C99;" parent="1" vertex="1">
          <mxGeometry x="230" y="630" width="120" height="60" as="geometry" />
        </mxCell>
        <mxCell id="DE5yet_kDrVKlgOhP13U-12" style="edgeStyle=orthogonalEdgeStyle;rounded=0;orthogonalLoop=1;jettySize=auto;html=1;entryX=1;entryY=0.5;entryDx=0;entryDy=0;strokeColor=#FFFFFF;" parent="1" source="DE5yet_kDrVKlgOhP13U-10" target="DE5yet_kDrVKlgOhP13U-11" edge="1">
          <mxGeometry relative="1" as="geometry" />
        </mxCell>
        <mxCell id="DE5yet_kDrVKlgOhP13U-10" value="&lt;div&gt;&lt;font color=&quot;#ffffff&quot;&gt;Actuation Logic&lt;br&gt;&lt;/font&gt;&lt;/div&gt;" style="rounded=0;whiteSpace=wrap;html=1;fillColor=#004C99;" parent="1" vertex="1">
          <mxGeometry x="230" y="550" width="120" height="60" as="geometry" />
        </mxCell>
        <mxCell id="DE5yet_kDrVKlgOhP13U-11" value="&lt;font color=&quot;#ffffff&quot;&gt;Solenoid Lock&lt;br&gt;&lt;/font&gt;" style="rounded=0;whiteSpace=wrap;html=1;fillColor=#004C99;" parent="1" vertex="1">
          <mxGeometry x="40" y="550" width="120" height="60" as="geometry" />
        </mxCell>
        <mxCell id="DE5yet_kDrVKlgOhP13U-18" value="" style="shape=image;html=1;verticalAlign=top;verticalLabelPosition=bottom;labelBackgroundColor=#ffffff;imageAspect=0;aspect=fixed;image=https://cdn0.iconfinder.com/data/icons/devices-42/1600/Watch_2-128.png" parent="1" vertex="1">
          <mxGeometry x="131.7" y="190" width="58" height="58" as="geometry" />
        </mxCell>
        <mxCell id="DE5yet_kDrVKlgOhP13U-19" value="" style="sketch=0;pointerEvents=1;shadow=0;dashed=0;html=1;strokeColor=none;fillColor=#E5CCFF;labelPosition=center;verticalLabelPosition=bottom;verticalAlign=top;outlineConnect=0;align=center;shape=mxgraph.office.devices.cell_phone_iphone_proportional;" parent="1" vertex="1">
          <mxGeometry x="130" y="254" width="17" height="29" as="geometry" />
        </mxCell>
        <mxCell id="DE5yet_kDrVKlgOhP13U-20" value="" style="html=1;verticalLabelPosition=bottom;align=center;labelBackgroundColor=#ffffff;verticalAlign=top;strokeWidth=2;strokeColor=#0080F0;shadow=0;dashed=0;shape=mxgraph.ios7.icons.credit_card;" parent="1" vertex="1">
          <mxGeometry x="147" y="295" width="30" height="15" as="geometry" />
        </mxCell>
        <mxCell id="DE5yet_kDrVKlgOhP13U-21" value="" style="html=1;verticalLabelPosition=bottom;align=center;labelBackgroundColor=#ffffff;verticalAlign=top;strokeWidth=2;strokeColor=#0080F0;shadow=0;dashed=0;shape=mxgraph.ios7.icons.wifi;pointerEvents=1;rotation=90;" parent="1" vertex="1">
          <mxGeometry x="160" y="254" width="29.7" height="21" as="geometry" />
        </mxCell>
        <mxCell id="DE5yet_kDrVKlgOhP13U-23" value="" style="rounded=0;whiteSpace=wrap;html=1;fillColor=none;strokeColor=#006DFF;strokeWidth=3;" parent="1" vertex="1">
          <mxGeometry x="430" y="370" width="180" height="420" as="geometry" />
        </mxCell>
        <mxCell id="DE5yet_kDrVKlgOhP13U-24" value="&lt;font style=&quot;font-size: 16px;&quot; color=&quot;#ffffff&quot;&gt;&lt;b&gt;EDGE SERVER&lt;/b&gt;&lt;/font&gt;" style="text;html=1;align=center;verticalAlign=middle;whiteSpace=wrap;rounded=0;" parent="1" vertex="1">
          <mxGeometry x="450" y="730" width="140" height="30" as="geometry" />
        </mxCell>
        <mxCell id="DE5yet_kDrVKlgOhP13U-49" style="edgeStyle=orthogonalEdgeStyle;rounded=0;orthogonalLoop=1;jettySize=auto;html=1;strokeColor=#FFFFFF;" parent="1" source="DE5yet_kDrVKlgOhP13U-33" target="DE5yet_kDrVKlgOhP13U-47" edge="1">
          <mxGeometry relative="1" as="geometry" />
        </mxCell>
        <mxCell id="DE5yet_kDrVKlgOhP13U-33" value="&lt;font color=&quot;#ffffff&quot;&gt;Edge Access List&lt;br&gt;&lt;/font&gt;" style="rounded=0;whiteSpace=wrap;html=1;fillColor=#004C99;strokeColor=none;" parent="1" vertex="1">
          <mxGeometry x="460" y="390" width="120" height="60" as="geometry" />
        </mxCell>
        <mxCell id="DE5yet_kDrVKlgOhP13U-42" style="edgeStyle=orthogonalEdgeStyle;rounded=0;orthogonalLoop=1;jettySize=auto;html=1;entryX=0;entryY=0.5;entryDx=0;entryDy=0;strokeColor=#FFFFFF;" parent="1" source="DE5yet_kDrVKlgOhP13U-36" target="DE5yet_kDrVKlgOhP13U-47" edge="1">
          <mxGeometry relative="1" as="geometry" />
        </mxCell>
        <mxCell id="DE5yet_kDrVKlgOhP13U-36" value="&lt;font color=&quot;#ffffff&quot;&gt;Local Access List&lt;br&gt;&lt;/font&gt;" style="rounded=0;whiteSpace=wrap;html=1;fillColor=#004C99;" parent="1" vertex="1">
          <mxGeometry x="230" y="470" width="120" height="60" as="geometry" />
        </mxCell>
        <mxCell id="DE5yet_kDrVKlgOhP13U-46" value="&lt;font color=&quot;#ffffff&quot;&gt;Duty Cycle Service&lt;br&gt;&lt;/font&gt;" style="rounded=0;whiteSpace=wrap;html=1;fillColor=#004C99;" parent="1" vertex="1">
          <mxGeometry x="230" y="710" width="120" height="60" as="geometry" />
        </mxCell>
        <mxCell id="DE5yet_kDrVKlgOhP13U-48" style="edgeStyle=orthogonalEdgeStyle;rounded=0;orthogonalLoop=1;jettySize=auto;html=1;entryX=1;entryY=0.5;entryDx=0;entryDy=0;strokeColor=#FFFFFF;" parent="1" source="DE5yet_kDrVKlgOhP13U-47" target="DE5yet_kDrVKlgOhP13U-36" edge="1">
          <mxGeometry relative="1" as="geometry" />
        </mxCell>
        <mxCell id="DE5yet_kDrVKlgOhP13U-86" style="edgeStyle=orthogonalEdgeStyle;rounded=0;orthogonalLoop=1;jettySize=auto;html=1;entryX=0;entryY=0.5;entryDx=0;entryDy=0;strokeColor=#FFFFFF;" parent="1" source="DE5yet_kDrVKlgOhP13U-47" target="DE5yet_kDrVKlgOhP13U-83" edge="1">
          <mxGeometry relative="1" as="geometry">
            <Array as="points">
              <mxPoint x="640" y="500" />
              <mxPoint x="640" y="690" />
            </Array>
          </mxGeometry>
        </mxCell>
        <mxCell id="DE5yet_kDrVKlgOhP13U-47" value="&lt;font color=&quot;#ffffff&quot;&gt;RFID Validation Service&lt;br&gt;&lt;/font&gt;" style="rounded=0;whiteSpace=wrap;html=1;fillColor=#004C99;strokeColor=none;" parent="1" vertex="1">
          <mxGeometry x="460" y="470" width="120" height="60" as="geometry" />
        </mxCell>
        <mxCell id="DE5yet_kDrVKlgOhP13U-96" style="edgeStyle=orthogonalEdgeStyle;rounded=0;orthogonalLoop=1;jettySize=auto;html=1;entryX=0;entryY=0.5;entryDx=0;entryDy=0;strokeColor=#FFFFFF;" parent="1" source="DE5yet_kDrVKlgOhP13U-50" target="DE5yet_kDrVKlgOhP13U-81" edge="1">
          <mxGeometry relative="1" as="geometry">
            <Array as="points">
              <mxPoint x="610" y="660" />
              <mxPoint x="610" y="615" />
            </Array>
          </mxGeometry>
        </mxCell>
        <mxCell id="DE5yet_kDrVKlgOhP13U-50" value="&lt;div&gt;&lt;font color=&quot;#ffffff&quot;&gt;(Edge)&lt;/font&gt;&lt;/div&gt;&lt;div&gt;&lt;font color=&quot;#ffffff&quot;&gt;Heartbeat Service&lt;/font&gt;&lt;/div&gt;" style="rounded=0;whiteSpace=wrap;html=1;fillColor=#004C99;" parent="1" vertex="1">
          <mxGeometry x="460" y="630" width="120" height="60" as="geometry" />
        </mxCell>
        <mxCell id="DE5yet_kDrVKlgOhP13U-52" value="J" style="rounded=0;whiteSpace=wrap;html=1;fillColor=none;strokeColor=#006DFF;strokeWidth=3;" parent="1" vertex="1">
          <mxGeometry x="650" y="160" width="260" height="670" as="geometry" />
        </mxCell>
        <mxCell id="DE5yet_kDrVKlgOhP13U-58" value="&lt;font color=&quot;#ffffff&quot;&gt;Global Access Logs&lt;/font&gt;" style="rounded=0;whiteSpace=wrap;html=1;fillColor=#004C99;strokeColor=none;" parent="1" vertex="1">
          <mxGeometry x="680" y="390" width="120" height="60" as="geometry" />
        </mxCell>
        <mxCell id="DE5yet_kDrVKlgOhP13U-59" value="&lt;div&gt;&lt;font color=&quot;#ffffff&quot;&gt;Registration Data&lt;/font&gt;&lt;/div&gt;&lt;div&gt;&lt;font color=&quot;#ffffff&quot;&gt;(Device, Edge Server, User Auth)&lt;br&gt;&lt;/font&gt;&lt;/div&gt;" style="rounded=0;whiteSpace=wrap;html=1;fillColor=#004C99;" parent="1" vertex="1">
          <mxGeometry x="680" y="310" width="120" height="60" as="geometry" />
        </mxCell>
        <mxCell id="DE5yet_kDrVKlgOhP13U-65" value="&lt;font color=&quot;#ffffff&quot;&gt;Temporary Access Log Service&lt;br&gt;&lt;/font&gt;" style="rounded=0;whiteSpace=wrap;html=1;fillColor=#004C99;" parent="1" vertex="1">
          <mxGeometry x="460" y="550" width="120" height="60" as="geometry" />
        </mxCell>
        <mxCell id="DE5yet_kDrVKlgOhP13U-70" style="edgeStyle=orthogonalEdgeStyle;rounded=0;orthogonalLoop=1;jettySize=auto;html=1;entryX=0.499;entryY=0.051;entryDx=0;entryDy=0;entryPerimeter=0;strokeColor=#FFFFFF;" parent="1" source="DE5yet_kDrVKlgOhP13U-47" target="DE5yet_kDrVKlgOhP13U-65" edge="1">
          <mxGeometry relative="1" as="geometry" />
        </mxCell>
        <mxCell id="DE5yet_kDrVKlgOhP13U-73" value="" style="edgeStyle=orthogonalEdgeStyle;rounded=0;orthogonalLoop=1;jettySize=auto;html=1;exitX=0.5;exitY=1;exitDx=0;exitDy=0;" parent="1" target="DE5yet_kDrVKlgOhP13U-57" edge="1">
          <mxGeometry relative="1" as="geometry">
            <mxPoint x="750" y="290" as="sourcePoint" />
            <mxPoint x="840" y="160" as="targetPoint" />
          </mxGeometry>
        </mxCell>
        <mxCell id="DE5yet_kDrVKlgOhP13U-57" value="&lt;font color=&quot;#ffffff&quot;&gt;Global Access List&lt;br&gt;&lt;/font&gt;" style="rounded=0;whiteSpace=wrap;html=1;fillColor=#004C99;strokeColor=none;" parent="1" vertex="1">
          <mxGeometry x="680" y="230" width="120" height="60" as="geometry" />
        </mxCell>
        <mxCell id="DE5yet_kDrVKlgOhP13U-74" value="" style="rounded=0;whiteSpace=wrap;html=1;fillColor=none;strokeColor=#00CC00;strokeWidth=3;" parent="1" vertex="1">
          <mxGeometry x="670" y="220" width="140" height="250" as="geometry" />
        </mxCell>
        <mxCell id="DE5yet_kDrVKlgOhP13U-75" value="" style="image;aspect=fixed;html=1;points=[];align=center;fontSize=12;image=img/lib/azure2/databases/Azure_Database_PostgreSQL_Server.svg;" parent="1" vertex="1">
          <mxGeometry x="840" y="313" width="48" height="64" as="geometry" />
        </mxCell>
        <mxCell id="DE5yet_kDrVKlgOhP13U-77" style="edgeStyle=orthogonalEdgeStyle;rounded=0;orthogonalLoop=1;jettySize=auto;html=1;entryX=1.024;entryY=0.501;entryDx=0;entryDy=0;entryPerimeter=0;strokeColor=#FFFFFF;" parent="1" source="DE5yet_kDrVKlgOhP13U-75" target="DE5yet_kDrVKlgOhP13U-74" edge="1">
          <mxGeometry relative="1" as="geometry" />
        </mxCell>
        <mxCell id="DE5yet_kDrVKlgOhP13U-78" value="&lt;div&gt;&lt;font color=&quot;#ffffff&quot;&gt;PostgreSQL&lt;/font&gt;&lt;/div&gt;&lt;div&gt;&lt;font color=&quot;#ffffff&quot;&gt;(Amazon RDS)&lt;br&gt;&lt;/font&gt;&lt;/div&gt;" style="text;html=1;align=center;verticalAlign=middle;whiteSpace=wrap;rounded=0;" parent="1" vertex="1">
          <mxGeometry x="810" y="275" width="106" height="30" as="geometry" />
        </mxCell>
        <mxCell id="DE5yet_kDrVKlgOhP13U-79" value="" style="rounded=0;whiteSpace=wrap;html=1;fillColor=none;strokeColor=#FF99FF;strokeWidth=3;" parent="1" vertex="1">
          <mxGeometry x="670" y="490" width="140" height="320" as="geometry" />
        </mxCell>
        <mxCell id="DE5yet_kDrVKlgOhP13U-80" value="&lt;div&gt;&lt;font color=&quot;#ffffff&quot;&gt;CRUD&lt;/font&gt;&lt;/div&gt;&lt;div&gt;&lt;font color=&quot;#ffffff&quot;&gt;Management&lt;/font&gt;&lt;/div&gt;&lt;div&gt;&lt;font color=&quot;#ffffff&quot;&gt;(REST)&lt;br&gt;&lt;/font&gt;&lt;/div&gt;" style="rounded=0;whiteSpace=wrap;html=1;fillColor=#004C99;" parent="1" vertex="1">
          <mxGeometry x="680" y="510" width="120" height="60" as="geometry" />
        </mxCell>
        <mxCell id="DE5yet_kDrVKlgOhP13U-81" value="&lt;div&gt;&lt;font color=&quot;#ffffff&quot;&gt;Heartbeat&lt;/font&gt;&lt;/div&gt;&lt;div&gt;&lt;font color=&quot;#ffffff&quot;&gt;Access Log&lt;/font&gt;&lt;/div&gt;&lt;div&gt;&lt;font color=&quot;#ffffff&quot;&gt;Access List&lt;/font&gt;&lt;/div&gt;&lt;div&gt;&lt;font color=&quot;#ffffff&quot;&gt;Endpoints (REST)&lt;br&gt;&lt;/font&gt;&lt;/div&gt;" style="rounded=0;whiteSpace=wrap;html=1;fillColor=#004C99;" parent="1" vertex="1">
          <mxGeometry x="680" y="585" width="120" height="60" as="geometry" />
        </mxCell>
        <mxCell id="DE5yet_kDrVKlgOhP13U-83" value="&lt;font color=&quot;#ffffff&quot;&gt;Access Notification Service&lt;br&gt;&lt;/font&gt;" style="rounded=0;whiteSpace=wrap;html=1;fillColor=#004C99;" parent="1" vertex="1">
          <mxGeometry x="680" y="660" width="120" height="60" as="geometry" />
        </mxCell>
        <mxCell id="DE5yet_kDrVKlgOhP13U-89" value="&lt;div&gt;&lt;b&gt;&lt;font color=&quot;#ff99ff&quot;&gt;Local&lt;/font&gt;&lt;/b&gt;&lt;/div&gt;&lt;div&gt;&lt;b&gt;&lt;font color=&quot;#ff99ff&quot;&gt;MQTTS&lt;br&gt;&lt;/font&gt;&lt;/b&gt;&lt;/div&gt;" style="text;html=1;align=center;verticalAlign=middle;whiteSpace=wrap;rounded=0;" parent="1" vertex="1">
          <mxGeometry x="370" y="470" width="60" height="30" as="geometry" />
        </mxCell>
        <mxCell id="DE5yet_kDrVKlgOhP13U-91" value="&lt;div&gt;&lt;b&gt;&lt;font color=&quot;#ff99ff&quot;&gt;Global&lt;/font&gt;&lt;/b&gt;&lt;/div&gt;&lt;div&gt;&lt;b&gt;&lt;font color=&quot;#ff99ff&quot;&gt;MQTTS&lt;br&gt;&lt;/font&gt;&lt;/b&gt;&lt;/div&gt;" style="text;html=1;align=center;verticalAlign=middle;whiteSpace=wrap;rounded=0;" parent="1" vertex="1">
          <mxGeometry x="577" y="502" width="60" height="30" as="geometry" />
        </mxCell>
        <mxCell id="DE5yet_kDrVKlgOhP13U-97" style="edgeStyle=orthogonalEdgeStyle;rounded=0;orthogonalLoop=1;jettySize=auto;html=1;entryX=-0.059;entryY=0.461;entryDx=0;entryDy=0;entryPerimeter=0;strokeColor=#FFFFFF;" parent="1" source="DE5yet_kDrVKlgOhP13U-9" target="DE5yet_kDrVKlgOhP13U-81" edge="1">
          <mxGeometry relative="1" as="geometry">
            <Array as="points">
              <mxPoint x="400" y="660" />
              <mxPoint x="400" y="615" />
              <mxPoint x="673" y="615" />
            </Array>
          </mxGeometry>
        </mxCell>
        <mxCell id="DE5yet_kDrVKlgOhP13U-98" value="&lt;font color=&quot;#ff99ff&quot;&gt;&lt;b&gt;HTTPS&lt;/b&gt;&lt;/font&gt;" style="text;html=1;align=center;verticalAlign=middle;whiteSpace=wrap;rounded=0;" parent="1" vertex="1">
          <mxGeometry x="370" y="660" width="60" height="30" as="geometry" />
        </mxCell>
        <mxCell id="DE5yet_kDrVKlgOhP13U-99" value="&lt;font color=&quot;#ff99ff&quot;&gt;&lt;b&gt;HTTPS&lt;/b&gt;&lt;/font&gt;" style="text;html=1;align=center;verticalAlign=middle;whiteSpace=wrap;rounded=0;" parent="1" vertex="1">
          <mxGeometry x="580" y="660" width="60" height="30" as="geometry" />
        </mxCell>
        <mxCell id="DE5yet_kDrVKlgOhP13U-101" value="&lt;div&gt;&lt;font color=&quot;#ffffff&quot;&gt;Frontend Endpoints&lt;/font&gt;&lt;/div&gt;&lt;div&gt;&lt;font color=&quot;#ffffff&quot;&gt;(REST)&lt;br&gt;&lt;/font&gt;&lt;/div&gt;" style="rounded=0;whiteSpace=wrap;html=1;fillColor=#004C99;" parent="1" vertex="1">
          <mxGeometry x="680" y="740" width="120" height="60" as="geometry" />
        </mxCell>
        <mxCell id="DE5yet_kDrVKlgOhP13U-102" value="" style="sketch=0;points=[[0,0,0],[0.25,0,0],[0.5,0,0],[0.75,0,0],[1,0,0],[0,1,0],[0.25,1,0],[0.5,1,0],[0.75,1,0],[1,1,0],[0,0.25,0],[0,0.5,0],[0,0.75,0],[1,0.25,0],[1,0.5,0],[1,0.75,0]];outlineConnect=0;fontColor=#232F3E;fillColor=#E7157B;strokeColor=#ffffff;dashed=0;verticalLabelPosition=bottom;verticalAlign=top;align=center;html=1;fontSize=12;fontStyle=0;aspect=fixed;shape=mxgraph.aws4.resourceIcon;resIcon=mxgraph.aws4.api_gateway;" parent="1" vertex="1">
          <mxGeometry x="835" y="602" width="58" height="58" as="geometry" />
        </mxCell>
        <mxCell id="DE5yet_kDrVKlgOhP13U-103" value="&lt;div&gt;&lt;font color=&quot;#ffffff&quot;&gt;Backend FastAPI&lt;br&gt;&lt;/font&gt;&lt;/div&gt;&lt;div&gt;&lt;font color=&quot;#ffffff&quot;&gt;(Amazon EC2)&lt;br&gt;&lt;/font&gt;&lt;/div&gt;" style="text;html=1;align=center;verticalAlign=middle;whiteSpace=wrap;rounded=0;" parent="1" vertex="1">
          <mxGeometry x="811" y="675" width="106" height="30" as="geometry" />
        </mxCell>
        <mxCell id="DE5yet_kDrVKlgOhP13U-107" value="" style="rounded=0;whiteSpace=wrap;html=1;fillColor=none;strokeColor=#FF6666;strokeWidth=3;" parent="1" vertex="1">
          <mxGeometry x="450" y="170" width="140" height="180" as="geometry" />
        </mxCell>
        <mxCell id="DE5yet_kDrVKlgOhP13U-108" value="&lt;font color=&quot;#ffffff&quot;&gt;Management Panel&lt;br&gt;&lt;/font&gt;" style="rounded=0;whiteSpace=wrap;html=1;fillColor=#004C99;strokeColor=none;" parent="1" vertex="1">
          <mxGeometry x="460" y="188" width="120" height="60" as="geometry" />
        </mxCell>
        <mxCell id="DE5yet_kDrVKlgOhP13U-109" value="&lt;font color=&quot;#ffffff&quot;&gt;Metrics Visualization&lt;br&gt;&lt;/font&gt;" style="rounded=0;whiteSpace=wrap;html=1;fillColor=#004C99;strokeColor=none;" parent="1" vertex="1">
          <mxGeometry x="460" y="270" width="120" height="60" as="geometry" />
        </mxCell>
        <mxCell id="DE5yet_kDrVKlgOhP13U-111" value="" style="rounded=0;whiteSpace=wrap;html=1;fillColor=none;strokeColor=#006DFF;strokeWidth=3;" parent="1" vertex="1">
          <mxGeometry x="430" y="110" width="180" height="250" as="geometry" />
        </mxCell>
        <mxCell id="DE5yet_kDrVKlgOhP13U-112" value="&lt;div style=&quot;font-size: 16px;&quot;&gt;&lt;font style=&quot;font-size: 16px;&quot; color=&quot;#ffffff&quot;&gt;&lt;b&gt;Front End - React&lt;/b&gt;&lt;/font&gt;&lt;/div&gt;&lt;div style=&quot;font-size: 16px;&quot;&gt;&lt;font style=&quot;font-size: 16px;&quot; color=&quot;#ffffff&quot;&gt;&lt;b&gt;Amazon S3&lt;br&gt;&lt;/b&gt;&lt;/font&gt;&lt;/div&gt;" style="text;html=1;align=center;verticalAlign=middle;whiteSpace=wrap;rounded=0;" parent="1" vertex="1">
          <mxGeometry x="450" y="120" width="140" height="30" as="geometry" />
        </mxCell>
        <mxCell id="DE5yet_kDrVKlgOhP13U-113" value="&lt;font size=&quot;1&quot; color=&quot;#ffffff&quot;&gt;&lt;b style=&quot;font-size: 16px;&quot;&gt;CLOUD SERVER&lt;/b&gt;&lt;/font&gt;" style="text;html=1;align=center;verticalAlign=middle;whiteSpace=wrap;rounded=0;" parent="1" vertex="1">
          <mxGeometry x="720" y="180" width="140" height="30" as="geometry" />
        </mxCell>
        <mxCell id="DE5yet_kDrVKlgOhP13U-116" style="edgeStyle=orthogonalEdgeStyle;rounded=0;orthogonalLoop=1;jettySize=auto;html=1;strokeColor=#FFFFFF;" parent="1" source="DE5yet_kDrVKlgOhP13U-102" target="DE5yet_kDrVKlgOhP13U-75" edge="1">
          <mxGeometry relative="1" as="geometry">
            <Array as="points" />
          </mxGeometry>
        </mxCell>
        <mxCell id="DE5yet_kDrVKlgOhP13U-119" style="edgeStyle=orthogonalEdgeStyle;rounded=0;orthogonalLoop=1;jettySize=auto;html=1;entryX=1;entryY=0.5;entryDx=0;entryDy=0;entryPerimeter=0;strokeColor=#FFFFFF;" parent="1" source="DE5yet_kDrVKlgOhP13U-111" target="DE5yet_kDrVKlgOhP13U-102" edge="1">
          <mxGeometry relative="1" as="geometry">
            <Array as="points">
              <mxPoint x="949" y="138" />
              <mxPoint x="949" y="631" />
            </Array>
          </mxGeometry>
        </mxCell>
        <mxCell id="zNQBJPP_V3ziujkV9v5t-1" style="edgeStyle=orthogonalEdgeStyle;rounded=0;orthogonalLoop=1;jettySize=auto;html=1;entryX=1.008;entryY=0.443;entryDx=0;entryDy=0;entryPerimeter=0;strokeColor=#FFFFFF;" edge="1" parent="1" source="DE5yet_kDrVKlgOhP13U-81" target="DE5yet_kDrVKlgOhP13U-33">
          <mxGeometry relative="1" as="geometry">
            <Array as="points">
              <mxPoint x="740" y="576" />
              <mxPoint x="662" y="576" />
              <mxPoint x="662" y="417" />
            </Array>
          </mxGeometry>
        </mxCell>
        <mxCell id="zNQBJPP_V3ziujkV9v5t-2" value="&lt;font color=&quot;#ff99ff&quot;&gt;&lt;b&gt;HTTPS&lt;/b&gt;&lt;/font&gt;" style="text;html=1;align=center;verticalAlign=middle;whiteSpace=wrap;rounded=0;" vertex="1" parent="1">
          <mxGeometry x="601" y="393" width="60" height="30" as="geometry" />
        </mxCell>
      </root>
    </mxGraphModel>
  </diagram>
</mxfile>
